<?xml version="1.0" encoding="UTF-8"?>
<svg width="593px" height="593px" viewBox="0 0 593 593" version="1.1" xmlns="http://www.w3.org/2000/svg" xmlns:xlink="http://www.w3.org/1999/xlink">
    <!-- Generator: Sketch 43.1 (39012) - http://www.bohemiancoding.com/sketch -->
    <title>Group 23</title>
    <desc>Created with Sketch.</desc>
    <defs></defs>
    <g id="Page-1" stroke="none" stroke-width="1" fill="none" fill-rule="evenodd">
        <g id="Group-23" transform="translate(20.000000, 20.000000)">
            <circle id="Oval-4" stroke="#7254F7" stroke-width="40" cx="276.5" cy="276.5" r="276.5"></circle>
            <path d="M276.991838,113 L437.993891,225.910412 L115.989785,225.910412 L276.991838,113 Z M440,406.214162 L439.983675,406.214162 C439.983675,424.324706 426.933083,439 410.831608,439 L143.152068,439 C127.048779,439 114,424.322666 114,406.214162 L114,233.095063 C114,231.179564 114.174129,229.317104 114.457088,227.487282 L268.285396,335.365173 C268.474036,335.497769 268.675372,335.587526 268.869453,335.709922 C269.072604,335.836398 269.279382,335.958795 269.48616,336.075071 C270.572651,336.705411 271.691792,337.213355 272.836326,337.545864 C272.954226,337.582583 273.072125,337.598902 273.190025,337.629501 C274.445204,337.962011 275.716707,338.170084 276.986396,338.170084 L276.995465,338.170084 L277.013604,338.170084 C278.283293,338.170084 279.554796,337.968131 280.809975,337.629501 C280.927875,337.596863 281.045774,337.582583 281.163674,337.545864 C282.306395,337.213355 283.421907,336.705411 284.51384,336.075071 C284.720618,335.958795 284.927396,335.836398 285.130547,335.709922 C285.322814,335.587526 285.525964,335.497769 285.714604,335.365173 L439.542912,227.487282 C439.825871,229.317104 440,231.175484 440,233.095063 L440,406.214162 Z" id="Shape" fill="#7254F7" fill-rule="nonzero"></path>
        </g>
    </g>
</svg>