<?xml version="1.0" encoding="UTF-8"?>
<svg width="20px" height="35px" viewBox="0 0 20 35" version="1.1" xmlns="http://www.w3.org/2000/svg" xmlns:xlink="http://www.w3.org/1999/xlink">
    <!-- Generator: Sketch 43.1 (39012) - http://www.bohemiancoding.com/sketch -->
    <title>facebook</title>
    <desc>Created with Sketch.</desc>
    <defs></defs>
    <g id="Page-1" stroke="none" stroke-width="1" fill="none" fill-rule="evenodd">
        <g id="Контакты-Copy-2" transform="translate(-516.000000, -686.000000)" fill-rule="nonzero" fill="#7254F7">
            <g id="Group-3" transform="translate(509.000000, 424.000000)">
                <g id="facebook" transform="translate(7.000000, 262.000000)">
                    <path d="M0.638660661,18.4643706 L4.97859918,18.4643706 L4.97859918,34.1092261 C4.97859918,34.4181269 5.26440737,34.6683893 5.61718252,34.6683893 L12.975738,34.6683893 C13.3285132,34.6683893 13.6143213,34.4181269 13.6143213,34.1092261 L13.6143213,18.5381086 L18.6035146,18.5381086 C18.92791,18.5381086 19.2008816,18.3249522 19.2379222,18.0427976 L19.9956696,12.2831728 C20.0164711,12.1247275 19.9591703,11.9660113 19.838073,11.8471095 C19.7168983,11.7281401 19.5434493,11.6600221 19.3614167,11.6600221 L13.6146307,11.6600221 L13.6146307,8.04956665 C13.6146307,6.96123652 14.2838363,6.40931848 15.6039979,6.40931848 L19.3614167,6.40931848 C19.7141918,6.40931848 20,6.15892062 20,5.85015527 L20,0.563293615 C20,0.254392849 19.7141918,0.00413041357 19.3614167,0.00413041357 L14.1830765,0.00413041357 C14.1465772,0.00257304452 14.065459,0 13.9459083,0 C13.047422,0 9.92433352,0.154450383 7.4573047,2.141721 C4.72387728,4.34397627 5.10387225,6.98073749 5.19465656,7.43792688 L5.19465656,11.6598867 L0.638583332,11.6598867 C0.285808185,11.6598867 0,11.9101491 0,12.2190499 L0,17.9051397 C7.73290545e-05,18.2139728 0.285885514,18.4643706 0.638660661,18.4643706 Z" id="Shape"></path>
                </g>
            </g>
        </g>
    </g>
</svg>