<?xml version="1.0" encoding="UTF-8"?>
<svg width="593px" height="593px" viewBox="0 0 593 593" version="1.1" xmlns="http://www.w3.org/2000/svg" xmlns:xlink="http://www.w3.org/1999/xlink">
    <!-- Generator: Sketch 43.1 (39012) - http://www.bohemiancoding.com/sketch -->
    <title>Group 24</title>
    <desc>Created with Sketch.</desc>
    <defs></defs>
    <g id="Page-1" stroke="none" stroke-width="1" fill="none" fill-rule="evenodd">
        <g id="Group-24" transform="translate(20.000000, 20.000000)">
            <circle id="Oval-4" stroke="#7254F7" stroke-width="40" cx="276.5" cy="276.5" r="276.5"></circle>
            <g id="001-instagram" transform="translate(115.000000, 114.000000)" fill-rule="nonzero" fill="#7254F7">
                <path d="M222.75,0 L101.25,0 C45.33975,0 0,45.33975 0,101.25 L0,222.75 C0,278.66025 45.33975,324 101.25,324 L222.75,324 C278.66025,324 324,278.66025 324,222.75 L324,101.25 C324,45.33975 278.66025,0 222.75,0 Z M293.625,222.75 C293.625,261.8325 261.8325,293.625 222.75,293.625 L101.25,293.625 C62.1675,293.625 30.375,261.8325 30.375,222.75 L30.375,101.25 C30.375,62.1675 62.1675,30.375 101.25,30.375 L222.75,30.375 C261.8325,30.375 293.625,62.1675 293.625,101.25 L293.625,222.75 Z" id="Shape"></path>
                <path d="M162,81 C117.26775,81 81,117.26775 81,162 C81,206.73225 117.26775,243 162,243 C206.73225,243 243,206.73225 243,162 C243,117.26775 206.73225,81 162,81 Z M162,212.625 C134.0955,212.625 111.375,189.9045 111.375,162 C111.375,134.07525 134.0955,111.375 162,111.375 C189.9045,111.375 212.625,134.07525 212.625,162 C212.625,189.9045 189.9045,212.625 162,212.625 Z" id="Shape"></path>
                <ellipse id="Oval" cx="249.075" cy="74.925" rx="10.79325" ry="10.79325"></ellipse>
            </g>
        </g>
    </g>
</svg>