<?xml version="1.0" encoding="UTF-8"?>
<svg width="593px" height="593px" viewBox="0 0 593 593" version="1.1" xmlns="http://www.w3.org/2000/svg" xmlns:xlink="http://www.w3.org/1999/xlink">
    <!-- Generator: Sketch 43.1 (39012) - http://www.bohemiancoding.com/sketch -->
    <title>Group 22</title>
    <desc>Created with Sketch.</desc>
    <defs></defs>
    <g id="Page-1" stroke="none" stroke-width="1" fill="none" fill-rule="evenodd">
        <g id="Group-22" transform="translate(20.000000, 20.000000)">
            <circle id="Oval-4" stroke="#7254F7" stroke-width="40" cx="276.5" cy="276.5" r="276.5"></circle>
            <g id="call-answer" transform="translate(116.000000, 119.000000)" fill-rule="nonzero" fill="#7254F7">
                <path d="M314.780268,248.48493 L265.06423,200.035726 C255.161717,190.425371 238.762962,190.717359 228.515474,200.706216 L203.468321,225.107002 C201.88588,224.257174 200.247946,223.369496 198.525851,222.427746 C182.708835,213.888012 161.060555,202.183277 138.280242,179.969694 C115.432414,157.709249 103.409189,136.582509 94.6183611,121.16034 C93.690723,119.526472 92.8019291,117.951181 91.9242337,116.455195 L108.734553,100.099387 L116.999133,92.0363856 C127.262343,82.0331089 127.545351,66.0585068 117.66596,56.4202145 L67.949922,7.96560367 C58.0705301,-1.6591707 41.6643764,-1.36718316 31.4011661,8.63609357 L17.3894841,22.3676186 L17.7723776,22.7380102 C13.074071,28.5795633 9.14802544,35.3169054 6.22638164,42.5823483 C3.53317912,49.4981272 1.85640159,56.0975863 1.08968975,62.7105633 C-5.47499138,115.740547 19.3945882,164.205972 86.8874271,229.97256 C180.183033,320.874408 255.367037,314.007294 258.610533,313.672049 C265.67464,312.849257 272.444641,311.204574 279.324701,308.601019 C286.71621,305.787484 293.625865,301.967314 299.617131,297.399151 L299.923261,297.664103 L314.118066,284.120026 C324.360004,274.118552 324.655035,258.138543 314.780268,248.48493 Z" id="Shape"></path>
            </g>
        </g>
    </g>
</svg>