<?xml version="1.0" encoding="UTF-8"?>
<svg width="35px" height="20px" viewBox="0 0 35 20" version="1.1" xmlns="http://www.w3.org/2000/svg" xmlns:xlink="http://www.w3.org/1999/xlink">
    <!-- Generator: Sketch 43.1 (39012) - http://www.bohemiancoding.com/sketch -->
    <title>vk</title>
    <desc>Created with Sketch.</desc>
    <defs></defs>
    <g id="Page-1" stroke="none" stroke-width="1" fill="none" fill-rule="evenodd">
        <g id="Контакты-Copy-2" transform="translate(-509.000000, -567.000000)" fill="#7254F7">
            <g id="Group-3" transform="translate(509.000000, 424.000000)">
                <g id="vk" transform="translate(0.000000, 143.000000)">
                    <path d="M18.9794365,19.6383654 C18.9794365,19.6383654 19.6035985,19.5698484 19.9222496,19.2263246 C20.2155588,18.9109586 20.2061729,18.3187087 20.2061729,18.3187087 C20.2061729,18.3187087 20.1658135,15.5461155 21.4526197,15.1378291 C22.7211233,14.7356435 24.3500452,17.8175019 26.0765805,19.0024711 C27.3821584,19.8992933 28.3742474,19.7026588 28.3742474,19.7026588 L32.9906996,19.6383654 C32.9906996,19.6383654 35.4056902,19.489599 34.2606111,17.5908326 C34.1667521,17.435496 33.5937433,16.1862335 30.8281895,13.6191914 C27.9335797,10.9324791 28.3212171,11.367046 31.8080769,6.71962043 C33.9316355,3.88930399 34.7805896,2.16136084 34.5154381,1.42128307 C34.2624883,0.71640241 32.7006754,0.902712412 32.7006754,0.902712412 L27.5027672,0.935093748 C27.5027672,0.935093748 27.1174762,0.882532739 26.8316757,1.05335602 C26.5524454,1.22089423 26.3727055,1.61134744 26.3727055,1.61134744 C26.3727055,1.61134744 25.5500318,3.80154588 24.4528208,5.66417661 C22.1382592,9.59451987 21.2128101,9.80194813 20.8345585,9.55791488 C19.9546309,8.98912968 20.1742609,7.2729189 20.1742609,6.05369123 C20.1742609,2.2448953 20.7519626,0.656801981 19.0493614,0.245699808 C18.4843306,0.109135046 18.0685355,0.01903046 16.623577,0.0044823238 C14.7689243,-0.0147587596 13.1991335,0.0101138604 12.3102893,0.445619358 C11.7189779,0.735174198 11.2628235,1.38045443 11.5406459,1.41752872 C11.8841697,1.4635196 12.6622603,1.62730346 13.0747704,2.18904923 C13.6074199,2.91364027 13.5886481,4.54115435 13.5886481,4.54115435 C13.5886481,4.54115435 13.8946282,9.02479608 12.8739122,9.58184891 C12.1732552,9.96385481 11.2121396,9.18388699 9.14865077,5.61818573 C8.09132977,3.79169069 7.29305946,1.77278482 7.29305946,1.77278482 C7.29305946,1.77278482 7.13913079,1.39547187 6.86459338,1.19367514 C6.53139413,0.949172589 6.06585377,0.871269666 6.06585377,0.871269666 L1.12652687,0.903651002 C1.12652687,0.903651002 0.385041222,0.924299969 0.112850286,1.24670544 C-0.129305788,1.53344451 0.0936092024,2.12663303 0.0936092024,2.12663303 C0.0936092024,2.12663303 3.96059767,11.1736966 8.33911738,15.7328948 C12.3539337,19.9129028 16.9131319,19.6383654 16.9131319,19.6383654 L18.9794365,19.6383654 Z" id="Shape"></path>
                </g>
            </g>
        </g>
    </g>
</svg>