<?xml version="1.0" encoding="UTF-8"?>
<svg width="29px" height="16px" viewBox="0 0 29 16" version="1.1" xmlns="http://www.w3.org/2000/svg" xmlns:xlink="http://www.w3.org/1999/xlink">
    <!-- Generator: Sketch 43.1 (39012) - http://www.bohemiancoding.com/sketch -->
    <title>002-vk-social-network-logo</title>
    <desc>Created with Sketch.</desc>
    <defs></defs>
    <g id="Page-1" stroke="none" stroke-width="1" fill="none" fill-rule="evenodd">
        <g id="О-нас-Copy-2" transform="translate(-1382.000000, -76.000000)" fill-rule="nonzero" fill="#FFFFFF">
            <g id="Group-2" transform="translate(1288.000000, 74.000000)">
                <g id="002-vk-social-network-logo" transform="translate(94.748933, 2.000000)">
                    <path d="M27.7480277,14.4118551 C27.7142489,14.3390576 27.6827593,14.2786729 27.6535081,14.2302939 C27.1695146,13.3586071 26.2446159,12.2886732 24.8793717,11.020187 L24.8505275,10.9911392 L24.8360799,10.9768951 L24.8214797,10.962295 L24.8068286,10.962295 C24.1872112,10.3716235 23.7948376,9.97446799 23.630522,9.77113375 C23.3298702,9.38379651 23.262516,8.99172821 23.4268316,8.59447099 C23.5429209,8.29432787 23.9789932,7.6604663 24.7340312,6.69202147 C25.1311867,6.17877674 25.4457265,5.76742805 25.6780068,5.45751756 C27.3532632,3.23035389 28.0795587,1.8071668 27.8567406,1.1873967 L27.7702078,1.04256492 C27.7120614,0.955370804 27.5619899,0.875603955 27.3201966,0.802857403 C27.0778437,0.730263466 26.7680859,0.718257741 26.3903634,0.766636742 L22.2074875,0.795531876 C22.1397264,0.771520427 22.0429684,0.773758782 21.9169083,0.802857403 C21.7910008,0.831956024 21.7280216,0.846556206 21.7280216,0.846556206 L21.6552242,0.882929482 L21.5974339,0.926628285 C21.549004,0.955523419 21.4957413,1.00634426 21.437595,1.07898907 C21.3797538,1.15137952 21.3313748,1.23633528 21.2927123,1.33314416 C20.8373087,2.50477062 20.3195364,3.59408665 19.7384288,4.60104137 C19.3801393,5.20148022 19.0511011,5.72184699 18.7506019,6.16244692 C18.4505096,6.60289422 18.1987455,6.92740489 17.9955639,7.13541933 C17.792077,7.34363726 17.6084301,7.51044562 17.443504,7.63645485 C17.2788323,7.76251496 17.1531283,7.81577765 17.0660868,7.79629378 C16.9788418,7.77680991 16.896684,7.75747866 16.8189011,7.73814741 C16.6834297,7.65095329 16.5744625,7.53237132 16.4923047,7.38229977 C16.4097908,7.23222821 16.3542389,7.04334153 16.3251911,6.81579235 C16.296296,6.58809055 16.2792031,6.39223445 16.2743194,6.22756271 C16.2697918,6.06309446 16.2718776,5.83045811 16.2816958,5.53031499 C16.2917684,5.23001926 16.296296,5.02683763 16.296296,4.92031226 C16.296296,4.55230627 16.3034689,4.15291244 16.3178656,3.72202901 C16.3325167,3.29114559 16.3443698,2.94974551 16.3542897,2.69823575 C16.3641589,2.44647164 16.3687373,2.18010734 16.3687373,1.89929547 C16.3687373,1.61848361 16.3516444,1.39825995 16.3178656,1.23842103 C16.2844938,1.07878558 16.2332659,0.923830341 16.1657592,0.773606167 C16.0978454,0.623534608 15.9984421,0.507445355 15.868007,0.425033177 C15.7373176,0.342722743 15.5748333,0.277403461 15.3814699,0.228871845 C14.8682252,0.11273172 14.2146763,0.0499051522 13.420518,0.040137783 C11.6196084,0.0208065314 10.4624295,0.137099271 9.94923562,0.388863388 C9.74590138,0.495236144 9.56189839,0.640576633 9.39737926,0.82442701 C9.22304189,1.03752862 9.19872521,1.15382136 9.32458184,1.17294913 C9.90563856,1.25999063 10.3169872,1.46820856 10.5590857,1.79739943 L10.6463307,1.97183854 C10.7141936,2.09769516 10.7819547,2.32051327 10.8497667,2.63998764 C10.917477,2.95946201 10.9611758,3.31286781 10.9804053,3.70000156 C11.0287334,4.40696578 11.0287334,5.0121357 10.9804053,5.51556219 C10.9319245,6.01919217 10.88614,6.41126047 10.8424412,6.69207234 C10.7987424,6.97288421 10.7334231,7.20043339 10.6463307,7.37466901 C10.5590857,7.5489555 10.5010411,7.65548087 10.4719425,7.69414338 C10.4428947,7.73280588 10.4186798,7.75717343 10.3994503,7.76673731 C10.2735937,7.8149637 10.1427008,7.83953474 10.0072294,7.83953474 C9.87155451,7.83953474 9.70703539,7.77167187 9.51341764,7.63604788 C9.31985077,7.50042389 9.11895837,7.31413167 8.91074044,7.07686599 C8.70252251,6.83954944 8.46769867,6.50791673 8.20616719,6.08191699 C7.94483919,5.65591725 7.67369295,5.15243989 7.39288108,4.57148491 L7.16054996,4.15016537 C7.01531122,3.87912087 6.81691153,3.48445811 6.56514741,2.96653318 C6.31323068,2.44840476 6.09056518,1.94721663 5.89699831,1.46307052 C5.81962243,1.25973627 5.70338056,1.10493365 5.54847619,0.998408275 L5.47578051,0.954709472 C5.42745238,0.916046969 5.34987302,0.874993495 5.24344939,0.83124382 C5.13687315,0.787545017 5.02566758,0.756208041 4.90937484,0.736927661 L0.92973146,0.765822795 C0.523062972,0.765822795 0.247134791,0.85795147 0.101845173,1.04195446 L0.043698803,1.12899597 C0.0146510539,1.17747671 0,1.25490346 0,1.3614797 C0,1.46800507 0.0290477492,1.59874538 0.0871941192,1.75354801 C0.668149102,3.11894483 1.29992493,4.43575917 1.9825216,5.70419451 C2.66511827,6.97262985 3.25828246,7.99438824 3.76165808,8.76855399 C4.26513544,9.54327934 4.7783293,10.2744585 5.30123966,10.9617354 C5.82415001,11.6492666 6.17028116,12.0898665 6.3396331,12.2834334 C6.50918852,12.4773564 6.64237067,12.6223407 6.73917955,12.7191496 L7.10235272,13.0676717 C7.33473471,13.3001046 7.67598218,13.5784746 8.12624772,13.9027818 C8.57661501,14.2272925 9.07520869,14.5467668 9.62228311,14.8617136 C10.1694593,15.1761517 10.806017,15.4327486 11.5323125,15.6311992 C12.2585062,15.8298532 12.9653179,15.9095692 13.6528491,15.8711102 L15.323171,15.8711102 C15.6619257,15.841859 15.9185735,15.7353336 16.0930126,15.5514832 L16.1508029,15.4786858 C16.1896689,15.4208955 16.2260422,15.3311069 16.2596175,15.2102866 C16.2935998,15.0892628 16.3104892,14.9559281 16.3104892,14.8108928 C16.3005692,14.3946095 16.3322623,14.0194307 16.4047036,13.685407 C16.4770941,13.351485 16.559608,13.0997209 16.6518893,12.9301655 C16.7441197,12.7607627 16.8482032,12.6178132 16.9640381,12.5019274 C17.0801274,12.3857873 17.1628448,12.3154317 17.2113764,12.2912168 C17.2596028,12.2668492 17.2981127,12.2503159 17.3271604,12.2403959 C17.5595424,12.1629692 17.8330288,12.2379541 18.1480264,12.4657067 C18.4627697,12.6932559 18.7579783,12.9742204 19.0341099,13.3081423 C19.310089,13.6423695 19.6416708,14.0173449 20.0289063,14.4336282 C20.4163962,14.850064 20.7552018,15.1596184 21.0455775,15.3632579 L21.3359533,15.5375444 C21.5298763,15.6538371 21.7816404,15.7603625 22.0915509,15.8571714 C22.4009018,15.9539294 22.6719463,15.9781443 22.9046844,15.9297653 L26.6227454,15.8717715 C26.990497,15.8717715 27.2766504,15.8108781 27.4796285,15.6900578 C27.6830137,15.569034 27.803834,15.4356992 27.8428017,15.2906639 C27.8816677,15.1454761 27.8837534,14.9807534 27.8501781,14.7965978 C27.815738,14.6129001 27.7818065,14.484449 27.7480277,14.4118551 Z" id="Shape"></path>
                </g>
            </g>
        </g>
    </g>
</svg>