<?xml version="1.0" encoding="UTF-8"?>
<svg width="593px" height="593px" viewBox="0 0 593 593" version="1.1" xmlns="http://www.w3.org/2000/svg" xmlns:xlink="http://www.w3.org/1999/xlink">
    <!-- Generator: Sketch 43.1 (39012) - http://www.bohemiancoding.com/sketch -->
    <title>Group 21</title>
    <desc>Created with Sketch.</desc>
    <defs></defs>
    <g id="Page-1" stroke="none" stroke-width="1" fill="none" fill-rule="evenodd">
        <g id="Group-21" transform="translate(20.000000, 20.000000)">
            <circle id="Oval-4" stroke="#7254F7" stroke-width="40" cx="276.5" cy="276.5" r="276.5"></circle>
            <g id="vk" transform="translate(97.000000, 173.000000)" fill="#7254F7">
                <path d="M197.527455,204.778006 C197.527455,204.778006 204.023387,204.063548 207.339731,200.481473 C210.39233,197.19301 210.294647,191.017356 210.294647,191.017356 C210.294647,191.017356 209.874609,162.106288 223.266974,157.848904 C236.468857,153.655135 253.421774,185.791049 271.390596,198.147252 C284.978327,207.498817 295.303439,205.448422 295.303439,205.448422 L343.348914,204.778006 C343.348914,204.778006 368.482798,203.226752 356.565449,183.427467 C355.588617,181.807703 349.625059,168.781085 320.842708,142.01339 C290.717214,113.997842 294.751529,118.529265 331.040833,70.068483 C353.141654,40.5555096 361.977098,22.5374747 359.217548,14.8203533 C356.584986,7.47024785 340.330504,9.41298545 340.330504,9.41298545 L286.233556,9.75064009 C286.233556,9.75064009 282.223661,9.20256299 279.249208,10.9838136 C276.343133,12.7308094 274.4725,16.8022393 274.4725,16.8022393 C274.4725,16.8022393 265.910569,39.6404165 254.491404,59.062899 C230.402731,100.046343 220.771169,102.20929 216.834536,99.6646467 C207.676738,93.7336695 209.962524,75.8379733 209.962524,63.1245418 C209.962524,23.4085258 215.974924,6.84876756 198.255194,2.56202162 C192.374667,1.13799986 188.047302,0.198439105 173.008975,0.0467391919 C153.706778,-0.153896177 137.369265,0.105461739 128.118667,4.64667204 C121.964626,7.66598967 117.217224,14.3946149 120.108646,14.781205 C123.68385,15.2607724 131.781787,16.9686198 136.074963,22.8261939 C141.618483,30.3818283 141.423117,47.3526444 141.423117,47.3526444 C141.423117,47.3526444 144.607589,94.1055789 133.984542,99.9142175 C126.692493,103.897564 116.689734,95.7644909 95.214086,58.5833315 C84.2100752,39.5376521 75.9021202,18.485619 75.9021202,18.485619 C75.9021202,18.485619 74.300116,14.5512083 71.4428828,12.4469837 C67.9751297,9.89744646 63.1300437,9.08511789 63.1300437,9.08511789 L11.7242673,9.42277254 C11.7242673,9.42277254 4.0072956,9.63808854 1.17448322,12.9999544 C-1.34574297,15.9899107 0.974232691,22.1753523 0.974232691,22.1753523 C0.974232691,22.1753523 41.2197052,116.513124 86.7889113,164.05392 C128.572894,207.64073 176.022501,204.778006 176.022501,204.778006 L197.527455,204.778006 Z" id="Shape"></path>
            </g>
        </g>
    </g>
</svg>