<?xml version="1.0" encoding="UTF-8"?>
<svg width="50px" height="50px" viewBox="0 0 50 50" version="1.1" xmlns="http://www.w3.org/2000/svg" xmlns:xlink="http://www.w3.org/1999/xlink">
    <!-- Generator: Sketch 43.1 (39012) - http://www.bohemiancoding.com/sketch -->
    <title>Group 2 Copy</title>
    <desc>Created with Sketch.</desc>
    <defs></defs>
    <g id="Page-1" stroke="none" stroke-width="1" fill="none" fill-rule="evenodd">
        <g id="О-нас-Copy-3" transform="translate(-815.000000, -1101.000000)" fill-rule="nonzero" fill="#7254F7">
            <g id="Group-5" transform="translate(806.000000, 920.000000)">
                <g id="Group-2-Copy" transform="translate(9.000000, 181.000000)">
                    <g id="brand" transform="translate(0.200000, 0.800000)">
                        <path d="M44.9166667,12.25 L44.9166667,11.3435 C47.1262604,9.08837708 47.0893063,5.46891042 44.8341833,3.25931667 C42.5789583,1.04972292 38.9595938,1.08667708 36.75,3.3418 C34.5722563,5.56446042 34.5722563,9.1207375 36.75,11.3435 L36.75,12.25 L35.1166667,12.25 L35.1166667,13.8833333 L46.55,13.8833333 L46.55,12.25 L44.9166667,12.25 Z M43.8771521,10.0644979 C43.7759875,10.1777083 43.6684938,10.2851 43.5552833,10.3863667 C43.3824563,10.541125 43.2835375,10.7620333 43.2833333,10.9939667 L43.2833333,12.25 L41.65,12.25 L41.65,10.1381 L43.8607167,7.92738333 L42.70595,6.77261667 L40.8333333,8.64523333 L38.9607167,6.77261667 L37.80595,7.92738333 L40.0166667,10.1381 L40.0166667,12.25 L38.3833333,12.25 L38.3833333,10.9947833 C38.3833333,10.7625437 38.2844146,10.5412271 38.1113833,10.3863667 C36.4303771,8.8830875 36.2862354,6.30170625 37.7895146,4.62059792 C39.2927938,2.93959167 41.874175,2.79545 43.5552833,4.29872917 C45.2362896,5.80211042 45.3804313,8.38349167 43.8771521,10.0644979 Z" id="Shape"></path>
                        <rect id="Rectangle-path" x="6.53333333" y="6.53333333" width="1.63333333" height="1.63333333"></rect>
                        <rect id="Rectangle-path" x="35.9333333" y="18.7833333" width="1.63333333" height="1.63333333"></rect>
                        <path d="M7.35,3.26666667 C5.09487708,3.26666667 3.26666667,5.09487708 3.26666667,7.35 C3.26666667,9.60512292 5.09487708,11.4333333 7.35,11.4333333 C9.60512292,11.4333333 11.4333333,9.60512292 11.4333333,7.35 C11.4306792,5.096 9.604,3.26932083 7.35,3.26666667 Z M7.35,9.8 C5.99688542,9.8 4.9,8.70311458 4.9,7.35 C4.9,5.99688542 5.99688542,4.9 7.35,4.9 C8.70311458,4.9 9.8,5.99688542 9.8,7.35 C9.8,8.70311458 8.70311458,9.8 7.35,9.8 Z" id="Shape"></path>
                        <path d="M48.1833333,28.5833333 L31.0333333,28.5833333 L31.0333333,0.816666667 C31.0333333,0.3656625 30.6676708,0 30.2166667,0 L0.816666667,0 C0.3656625,0 0,0.3656625 0,0.816666667 L0,44.9166667 C0,45.3676708 0.3656625,45.7333333 0.816666667,45.7333333 L4.08333333,45.7333333 L4.08333333,46.55 C4.08333333,47.9031146 5.18021875,49 6.53333333,49 C7.88644792,49 8.98333333,47.9031146 8.98333333,46.55 L8.98333333,45.7333333 L16.3333333,45.7333333 L16.3333333,48.1833333 C16.3333333,48.6343375 16.6989958,49 17.15,49 L48.1833333,49 C48.6343375,49 49,48.6343375 49,48.1833333 L49,29.4 C49,28.9489958 48.6343375,28.5833333 48.1833333,28.5833333 Z M47.285,30.2166667 C46.8943271,32.1165396 45.2230187,33.4808833 43.2833333,33.4833333 L22.05,33.4833333 C20.1103146,33.4808833 18.4390063,32.1165396 18.0483333,30.2166667 L47.285,30.2166667 Z M7.35,46.55 C7.35,47.0010042 6.9843375,47.3666667 6.53333333,47.3666667 C6.08232917,47.3666667 5.71666667,47.0010042 5.71666667,46.55 L5.71666667,44.1 L7.35,44.1 L7.35,46.55 Z M7.35,42.4666667 L5.71666667,42.4666667 L5.71666667,40.8333333 L7.35,40.8333333 L7.35,42.4666667 Z M7.35,39.2 L5.71666667,39.2 L5.71666667,26.1333333 L7.35,26.1333333 L7.35,39.2 Z M5.81303333,24.5 L6.53333333,23.0594 L7.25363333,24.5 L5.81303333,24.5 Z M16.3333333,29.4 L16.3333333,44.1 L8.98333333,44.1 L8.98333333,24.5 C8.98343542,24.3733146 8.9541375,24.2483646 8.89758333,24.13495 L7.26425,20.8682833 C7.0235375,20.4646458 6.50117708,20.3324479 6.09753958,20.5731604 C5.9761625,20.6455375 5.87479375,20.7469063 5.80241667,20.8682833 L4.16908333,24.13495 C4.11252917,24.2483646 4.08323125,24.3733146 4.08333333,24.5 L4.08333333,44.1 L1.63333333,44.1 L1.63333333,1.63333333 L29.4,1.63333333 L29.4,28.5833333 L17.15,28.5833333 C16.6989958,28.5833333 16.3333333,28.9489958 16.3333333,29.4 Z M47.3666667,47.3666667 L17.9666667,47.3666667 L17.9666667,33.3935 C19.0394604,34.4953875 20.5121146,35.1168708 22.05,35.1166667 L43.2833333,35.1166667 C44.8212187,35.1168708 46.2938729,34.4953875 47.3666667,33.3935 L47.3666667,47.3666667 Z" id="Shape"></path>
                        <path d="M48.1833333,15.5166667 L33.4833333,15.5166667 C33.0323292,15.5166667 32.6666667,15.8823292 32.6666667,16.3333333 L32.6666667,26.1333333 C32.6666667,26.5843375 33.0323292,26.95 33.4833333,26.95 L48.1833333,26.95 C48.6343375,26.95 49,26.5843375 49,26.1333333 L49,16.3333333 C49,15.8823292 48.6343375,15.5166667 48.1833333,15.5166667 Z M47.3666667,25.3166667 L34.3,25.3166667 L34.3,17.15 L47.3666667,17.15 L47.3666667,25.3166667 Z" id="Shape"></path>
                        <rect id="Rectangle-path" x="40.0166667" y="22.05" width="4.08333333" height="1.63333333"></rect>
                        <rect id="Rectangle-path" x="13.8833333" y="4.9" width="13.8833333" height="1.63333333"></rect>
                        <rect id="Rectangle-path" x="13.8833333" y="8.16666667" width="10.6166667" height="1.63333333"></rect>
                        <rect id="Rectangle-path" x="19.6" y="40.8333333" width="1.63333333" height="1.63333333"></rect>
                        <rect id="Rectangle-path" x="23.6833333" y="40.8333333" width="10.6166667" height="1.63333333"></rect>
                        <rect id="Rectangle-path" x="23.6833333" y="44.1" width="7.35" height="1.63333333"></rect>
                        <rect id="Rectangle-path" x="40.0166667" y="18.7833333" width="5.71666667" height="1.63333333"></rect>
                    </g>
                </g>
            </g>
        </g>
    </g>
</svg>