<?xml version="1.0" encoding="UTF-8"?>
<svg width="57px" height="44px" viewBox="0 0 57 44" version="1.1" xmlns="http://www.w3.org/2000/svg" xmlns:xlink="http://www.w3.org/1999/xlink">
    <!-- Generator: Sketch 43.1 (39012) - http://www.bohemiancoding.com/sketch -->
    <title>Group 3</title>
    <desc>Created with Sketch.</desc>
    <defs></defs>
    <g id="Page-1" stroke="none" stroke-width="1" fill="none" fill-rule="evenodd">
        <g id="О-нас-Copy-3" transform="translate(-809.000000, -920.000000)" fill-rule="nonzero" fill="#7254F7">
            <g id="Group-5" transform="translate(806.000000, 920.000000)">
                <g id="Group-3" transform="translate(3.000000, 0.000000)">
                    <g id="responsive-design-symbol" transform="translate(0.600000, 0.600000)">
                        <path d="M42.9408564,40.1875466 L36.8444736,40.1875466 C36.6244232,40.1875466 36.4447154,40.0079798 36.4447154,39.7877884 L36.4447154,38.3038589 C36.4447154,38.0839496 36.2648665,37.9041008 36.0449572,37.9041008 L27.5144786,37.9041008 C27.2944282,37.9041008 27.1145793,38.0839496 27.1145793,38.3038589 L27.1145793,39.7877884 C27.1145793,40.0079798 26.9347305,40.1875466 26.7146801,40.1875466 L22.1315668,40.1875466 C21.9115164,40.1875466 21.7316675,40.3673955 21.7316675,40.5873048 L21.7316675,42.3039798 C21.7316675,42.5238892 21.9115164,42.703738 22.1315668,42.703738 L42.9405743,42.703738 C43.1604836,42.703738 43.3403325,42.5238892 43.3403325,42.3039798 L43.3403325,40.5873048 C43.3406146,40.3678186 43.1607657,40.1875466 42.9408564,40.1875466 Z" id="Shape"></path>
                        <g id="Group">
                            <path d="M53.1833552,0.0519093199 L9.68108816,0.0519093199 C8.16753652,0.0519093199 6.93624181,1.28334509 6.93624181,2.79717884 L6.93624181,9.95742065 C6.93624181,10.9040605 6.86599496,11.0379244 7.50103778,11.0379244 L8.59000504,11.0379244 C9.12292191,11.0379244 9.01360202,10.9040605 9.01360202,9.93978841 L9.01360202,2.79717884 C9.01360202,2.43536524 9.31941562,2.12955164 9.68108816,2.12955164 L53.1833552,2.12955164 C53.5448866,2.12955164 53.8507003,2.43536524 53.8507003,2.79717884 L53.8507003,29.5980453 L22.8362922,29.5980453 C22.8362922,29.5980453 21.7432343,29.5960705 21.7432343,31.009471 L21.7432343,34.3618539 C21.7432343,35.7732796 22.8716977,35.7732796 22.8716977,35.7732796 L53.1833552,35.7732796 C54.6967657,35.7732796 55.9284836,34.5419849 55.9284836,33.0284332 L55.9284836,2.79717884 C55.9284836,1.28348615 54.6970479,0.0519093199 53.1833552,0.0519093199 Z M31.4323627,33.4030831 C30.748937,33.4030831 30.1951436,32.8492897 30.1951436,32.1662872 C30.1951436,31.4832846 30.748937,30.9292091 31.4323627,30.9292091 C32.1150831,30.9292091 32.6690176,31.4832846 32.6690176,32.1662872 C32.6690176,32.8492897 32.1150831,33.4030831 31.4323627,33.4030831 Z" id="Shape"></path>
                            <path d="M17.5088161,13.4897935 L1.7715466,13.4897935 C0.794438287,13.4897935 0,14.2843728 0,15.2614811 L0,41.1275567 C0,42.1045239 0.794438287,42.8993854 1.7715466,42.8993854 L17.5088161,42.8993854 C18.4853602,42.8993854 19.2803627,42.1045239 19.2803627,41.1275567 L19.2803627,15.2614811 C19.2803627,14.2843728 18.4853602,13.4897935 17.5088161,13.4897935 Z M7.69894207,15.2967456 L11.5812796,15.2967456 C11.7664887,15.2967456 11.9169975,15.4468312 11.9169975,15.6326045 C11.9169975,15.8179547 11.7666297,15.9681814 11.5812796,15.9681814 L7.69894207,15.9681814 C7.51345088,15.9681814 7.36336524,15.8179547 7.36336524,15.6326045 C7.36336524,15.4468312 7.51345088,15.2967456 7.69894207,15.2967456 Z M9.61662469,41.6549723 C9.1102267,41.6549723 8.69974811,41.2444937 8.69974811,40.7380957 C8.69974811,40.2316977 9.1102267,39.8212191 9.61662469,39.8212191 C10.1230227,39.8212191 10.5335013,40.2316977 10.5335013,40.7380957 C10.5335013,41.2444937 10.1230227,41.6549723 9.61662469,41.6549723 Z M17.7582065,38.9602015 C17.7582065,39.1966146 17.5689068,39.390005 17.3378539,39.390005 L1.94293199,39.390005 C1.71173804,39.390005 1.52257935,39.1966146 1.52257935,38.9602015 L1.52257935,17.4664987 C1.52257935,17.2300856 1.71187909,17.0368363 1.94293199,17.0368363 L17.3378539,17.0368363 C17.5690479,17.0368363 17.7582065,17.2302267 17.7582065,17.4664987 L17.7582065,38.9602015 Z" id="Shape"></path>
                        </g>
                    </g>
                </g>
            </g>
        </g>
    </g>
</svg>