<?xml version="1.0" encoding="UTF-8"?>
<svg width="46px" height="54px" viewBox="0 0 46 54" version="1.1" xmlns="http://www.w3.org/2000/svg" xmlns:xlink="http://www.w3.org/1999/xlink">
    <!-- Generator: Sketch 43.1 (39012) - http://www.bohemiancoding.com/sketch -->
    <title>Group 9 Copy</title>
    <desc>Created with Sketch.</desc>
    <defs></defs>
    <g id="Page-1" stroke="none" stroke-width="1" fill="none" fill-rule="evenodd">
        <g id="О-нас-Copy-3" transform="translate(-816.000000, -1560.000000)" fill-rule="nonzero" fill="#7254F7">
            <g id="Group-5" transform="translate(806.000000, 920.000000)">
                <g id="Group-9-Copy" transform="translate(10.000000, 640.000000)">
                    <g id="menu" transform="translate(0.600000, 0.400000)">
                        <path d="M14.1758159,39.7572262 C14.0726107,39.9448717 13.9127039,40.0011655 13.7625874,40.0011655 C13.6124708,40.0011655 13.4623543,39.9448717 13.3591492,39.7572262 L12.2793707,37.7294289 L12.2793707,41.840909 C12.2793707,42.0946387 11.9697553,42.2259906 11.6695222,42.2259906 C11.3594989,42.2259906 11.0592658,42.0946387 11.0592658,41.840909 L11.0592658,35.973718 C11.0592658,35.5233683 11.3594989,35.3638695 11.6695222,35.3638695 C12.1104895,35.3638695 12.3079254,35.4576923 12.6175408,36.0112471 L13.7723776,38.1141025 L14.9268065,36.0112471 C15.2368298,35.4576923 15.44324,35.3638695 15.8846154,35.3638695 C16.1942308,35.3638695 16.4944639,35.5233683 16.4944639,35.973718 L16.4944639,41.840909 C16.4944639,42.0946387 16.1848485,42.2259906 15.8846154,42.2259906 C15.5745921,42.2259906 15.274359,42.0946387 15.274359,41.840909 L15.274359,37.8044872 L14.1758159,39.7572262 Z" id="Shape"></path>
                        <path d="M19.8920746,38.3111305 L21.3189977,38.3111305 C21.5629371,38.3111305 21.7036713,38.5460955 21.7036713,38.7994172 C21.7036713,39.0152098 21.5817016,39.2689394 21.3189977,39.2689394 L19.8920746,39.2689394 L19.8920746,41.1555944 L22.5484848,41.1555944 C22.7928322,41.1555944 22.9335664,41.4089161 22.9335664,41.7001748 C22.9335664,41.9534966 22.8115967,42.2259906 22.5484848,42.2259906 L19.2067599,42.2259906 C18.9346736,42.2259906 18.6715618,42.0942308 18.6715618,41.840909 L18.6715618,35.7485431 C18.6715618,35.4952215 18.9342657,35.3634616 19.2067599,35.3634616 L22.5484848,35.3634616 C22.8115967,35.3634616 22.9335664,35.6359557 22.9335664,35.8892774 C22.9335664,36.1805362 22.7928322,36.4338578 22.5484848,36.4338578 L19.8920746,36.4338578 L19.8920746,38.3111305 Z" id="Shape"></path>
                        <path d="M27.9367715,41.840909 L25.9183566,38.0671912 L25.9183566,41.840909 C25.9183566,42.0946387 25.6087412,42.2259906 25.3081002,42.2259906 C24.9984848,42.2259906 24.6978438,42.0946387 24.6978438,41.840909 L24.6978438,35.7485431 C24.6978438,35.4858392 24.9984848,35.3638695 25.3081002,35.3638695 C25.7494756,35.3638695 25.9277389,35.4576923 26.2189976,36.0112471 L28.0305944,39.5128788 L28.0305944,35.7391608 C28.0305944,35.4764569 28.3308275,35.3634616 28.6408508,35.3634616 C28.9410839,35.3634616 29.2506992,35.476049 29.2506992,35.7391608 L29.2506992,41.840909 C29.2506992,42.0942308 28.9410839,42.2259906 28.6408508,42.2259906 C28.349592,42.2259906 28.0962704,42.1321678 27.9367715,41.840909 Z" id="Shape"></path>
                        <path d="M34.6858975,35.7391608 C34.6858975,35.4764569 34.9861306,35.3638695 35.2957459,35.3638695 C35.596387,35.3638695 35.9060023,35.4764569 35.9060023,35.7391608 L35.9060023,40.1325175 C35.9060023,41.7001748 34.9110723,42.2822844 33.6530303,42.2822844 C32.3856061,42.2822844 31.4000583,41.7001748 31.4000583,40.1325175 L31.4000583,35.7391608 C31.4000583,35.4764569 31.7002914,35.3638695 32.0103147,35.3638695 C32.3105478,35.3638695 32.6201632,35.4764569 32.6201632,35.7391608 L32.6201632,40.1325175 C32.6201632,40.8647436 33.0052448,41.212296 33.6530303,41.212296 C34.3008159,41.212296 34.6854895,40.8647436 34.6854895,40.1325175 L34.6854895,35.7391608 L34.6858975,35.7391608 Z" id="Shape"></path>
                        <path d="M37.0991841,44.0844989 L32.6368881,44.0844989 C32.1987762,44.0844989 31.8438811,44.4393939 31.8438811,44.8770979 C31.8438811,45.3152098 32.1987762,45.669697 32.6368881,45.669697 L37.0991841,45.669697 C37.537296,45.669697 37.8917832,45.3152098 37.8917832,44.8770979 C37.8917832,44.4393939 37.537296,44.0844989 37.0991841,44.0844989 L37.0991841,44.0844989 Z" id="Shape"></path>
                        <path d="M28.9484265,44.0844989 L10.888345,44.0844989 C10.4506411,44.0844989 10.0957459,44.4393939 10.0957459,44.8770979 C10.0957459,45.3152098 10.4506411,45.669697 10.888345,45.669697 L28.9484265,45.669697 C29.3865385,45.669697 29.7410256,45.3152098 29.7410256,44.8770979 C29.7410256,44.4393939 29.3865385,44.0844989 28.9484265,44.0844989 Z" id="Shape"></path>
                        <path d="M37.0991841,31.9805362 L10.888345,31.9805362 C10.4506411,31.9805362 10.0957459,32.3354312 10.0957459,32.7731352 C10.0957459,33.2108392 10.4506411,33.5657343 10.888345,33.5657343 L37.0991841,33.5657343 C37.537296,33.5657343 37.8917832,33.2108392 37.8917832,32.7731352 C37.8917832,32.3354312 37.537296,31.9805362 37.0991841,31.9805362 Z" id="Shape"></path>
                        <path d="M36.6582168,22.1523893 L35.8888695,22.1523893 C35.5918998,16.690676 31.5995338,12.1961538 26.3744173,11.1322843 L26.5273893,9.66987177 C26.5775641,9.19259909 26.4217366,8.71451052 26.1006993,8.35839156 C25.779662,8.0018648 25.320338,7.7974942 24.8406177,7.7974942 L23.1473193,7.7974942 C22.6671912,7.7974942 22.208275,8.0022727 21.8868299,8.35839156 C21.5657926,8.71491841 21.410373,9.19300699 21.4605478,9.66987177 L21.6135198,11.1322843 C16.3884033,12.1961538 12.3960373,16.6902681 12.0990676,22.1519814 L11.3297203,22.1519814 C10.6493006,22.1519814 10.0957459,22.7055361 10.0957459,23.3859557 L10.0957459,25.0217366 C10.0957459,25.7021562 10.6493006,26.255711 11.3297203,26.255711 L36.6578089,26.255711 C37.3382284,26.255711 37.8917832,25.7021562 37.8917832,25.0217366 L37.8917832,23.3859557 C37.8917832,22.7059441 37.3386363,22.1523893 36.6582168,22.1523893 L36.6582168,22.1523893 Z M23.0649185,9.41940562 C23.0869464,9.395338 23.1142774,9.38310018 23.1473193,9.38310018 L24.8406177,9.38310018 C24.8732518,9.38310018 24.9009907,9.395338 24.9230186,9.41940562 C24.9450466,9.44388114 24.954429,9.47284388 24.9507575,9.5050699 L24.8026806,10.9213869 C24.5354895,10.9034382 24.2658509,10.8932401 23.9941725,10.8932401 C23.7220862,10.8932401 23.4528555,10.9034382 23.1856644,10.9213869 L23.0371794,9.5050699 C23.033916,9.47284388 23.0432983,9.44388114 23.0649185,9.41940562 Z M36.3065851,24.6705129 L11.681352,24.6705129 L11.681352,23.7375874 L15.0218531,23.7375874 C15.4599651,23.7375874 15.8148601,23.3826923 15.8148601,22.9449883 C15.8148601,22.5072844 15.4599651,22.1523893 15.0218531,22.1523893 L13.6875291,22.1523893 C14.0261072,16.7612471 18.5189977,12.4788462 23.9937646,12.4788462 C29.4689394,12.4788462 33.9618299,16.7612471 34.3004079,22.1523893 L18.7103147,22.1523893 C18.2722028,22.1523893 17.9177156,22.5072844 17.9177156,22.9449883 C17.9177156,23.3826923 18.2722028,23.7375874 18.7103147,23.7375874 L36.3065851,23.7375874 L36.3065851,24.6705129 Z" id="Shape"></path>
                        <path d="M42.7620047,5.93609596e-15 L5.22593243,5.93609596e-15 C4.11311191,5.93609596e-15 3.20751751,0.905594406 3.20751751,2.01841492 L3.20751751,3.45023305 L2.46794867,3.45023305 C1.1071095,3.45023305 0,4.55775056 0,5.91858972 C0,7.27942888 1.1071095,8.38694639 2.46794867,8.38694639 L3.20751751,8.38694639 L3.20751751,11.7763986 L2.46794867,11.7763986 C1.1071095,11.7763986 0,12.8835082 0,14.2447552 C0,15.6055944 1.1071095,16.7127039 2.46794867,16.7127039 L3.20751751,16.7127039 L3.20751751,20.1025641 L2.46794867,20.1025641 C1.1071095,20.1025641 0,21.2096736 0,22.5709208 C0,23.9317599 1.1071095,25.0388694 2.46794867,25.0388694 L3.20751751,25.0388694 L3.20751751,28.4287296 L2.46794867,28.4287296 C1.1071095,28.4287296 0,29.5358391 0,30.8966783 C0,32.2579255 1.1071095,33.365035 2.46794867,33.365035 L3.20751751,33.365035 L3.20751751,36.7548952 L2.46794867,36.7548952 C1.1071095,36.7548952 0,37.8620047 0,39.2228438 C0,40.5840909 1.1071095,41.6912005 2.46794867,41.6912005 L3.20751751,41.6912005 L3.20751751,45.0810606 L2.46794867,45.0810606 C1.1071095,45.0810606 0,46.1881702 0,47.5490094 C0,48.9098485 1.1071095,50.017366 2.46794867,50.017366 L3.20751751,50.017366 L3.20751751,51.4491841 C3.20751751,52.5620047 4.11311191,53.4675991 5.22593243,53.4675991 L42.7620047,53.4675991 C43.8748252,53.4675991 44.7808275,52.5620047 44.7808275,51.4491841 L44.7808275,2.01841492 C44.7808275,0.905594406 43.8748252,0 42.7620047,0 L42.7620047,5.93609596e-15 Z M3.20710961,6.8017482 L2.46794867,6.8017482 C1.98129368,6.8017482 1.58519819,6.40565271 1.58519819,5.91858972 C1.58519819,5.43193473 1.98129368,5.03583913 2.46794867,5.03583913 L3.20710961,5.03583913 L3.20710961,6.8017482 Z M3.20710961,15.1275058 L2.46794867,15.1275058 C1.98129368,15.1275058 1.58519819,14.7314102 1.58519819,14.2447552 C1.58519819,13.7576924 1.98129368,13.3620047 2.46794867,13.3620047 L3.20710961,13.3620047 L3.20710961,15.1275058 Z M3.20710961,23.4536714 L2.46794867,23.4536714 C1.98129368,23.4536714 1.58519819,23.0575758 1.58519819,22.5709208 C1.58519819,22.0838578 1.98129368,21.6877623 2.46794867,21.6877623 L3.20710961,21.6877623 L3.20710961,23.4536714 Z M3.20710961,31.7798368 L2.46794867,31.7798368 C1.98129368,31.7798368 1.58519819,31.3837413 1.58519819,30.8966783 C1.58519819,30.4100233 1.98129368,30.0139277 2.46794867,30.0139277 L3.20710961,30.0139277 L3.20710961,31.7798368 Z M3.20710961,40.1055944 L2.46794867,40.1055944 C1.98129368,40.1055944 1.58519819,39.7099067 1.58519819,39.2228438 C1.58519819,38.7361888 1.98129368,38.3400932 2.46794867,38.3400932 L3.20710961,38.3400932 L3.20710961,40.1055944 Z M3.20710961,48.4317599 L2.46794867,48.4317599 C1.98129368,48.4317599 1.58519819,48.0356643 1.58519819,47.5490094 C1.58519819,47.0619464 1.98129368,46.6662588 2.46794867,46.6662588 L3.20710961,46.6662588 L3.20710961,48.4317599 Z M43.1952214,51.4487762 C43.1952214,51.6878205 43.001049,51.8824009 42.7620047,51.8824009 L5.22593243,51.8824009 C4.98688809,51.8824009 4.79271559,51.6878205 4.79271559,51.4487762 L4.79271559,2.01841492 C4.79271559,1.77977858 4.98688809,1.58519819 5.22593243,1.58519819 L42.7620047,1.58519819 C43.001049,1.58519819 43.1952214,1.77977858 43.1952214,2.01841492 L43.1952214,51.4487762 Z" id="Shape"></path>
                    </g>
                </g>
            </g>
        </g>
    </g>
</svg>