<?xml version="1.0" encoding="UTF-8"?>
<svg width="52px" height="52px" viewBox="0 0 52 52" version="1.1" xmlns="http://www.w3.org/2000/svg" xmlns:xlink="http://www.w3.org/1999/xlink">
    <!-- Generator: Sketch 43.1 (39012) - http://www.bohemiancoding.com/sketch -->
    <title>Group 4</title>
    <desc>Created with Sketch.</desc>
    <defs></defs>
    <g id="Page-1" stroke="none" stroke-width="1" fill="none" fill-rule="evenodd">
        <g id="О-нас-Copy-3" transform="translate(-813.000000, -1193.000000)" fill-rule="nonzero" fill="#7254F7">
            <g id="Group-5" transform="translate(806.000000, 920.000000)">
                <g id="Group-4" transform="translate(7.000000, 273.000000)">
                    <path d="M48.68,5.84 L7.52,5.84 C7.51835937,4.44875 6.39125,3.32164063 5,3.32 L5,0.8 L3.32,0.8 L3.32,3.32 C1.92875,3.32164063 0.801640625,4.44875 0.8,5.84 L0.8,46.16 C0.801640625,47.55125 1.92875,48.6783594 3.32,48.68 L3.32,51.2 L5,51.2 L5,48.68 C6.39125,48.6783594 7.51835937,47.55125 7.52,46.16 L48.68,46.16 C50.07125,46.1583594 51.1983594,45.03125 51.2,43.64 L51.2,8.36 C51.1983594,6.96875 50.07125,5.84164063 48.68,5.84 Z M5,47 L3.32,47 C2.85652349,46.9995899 2.48041013,46.6234765 2.48,46.16 L2.48,5.84 C2.48041013,5.37652349 2.85652349,5.00041013 3.32,5 L5,5 C5.46347651,5.00041013 5.83958987,5.37652349 5.84,5.84 L5.84,46.16 C5.83958987,46.6234765 5.46347651,46.9995899 5,47 Z M49.52,43.64 C49.5195899,44.1034765 49.1434765,44.4795899 48.68,44.48 L7.52,44.48 L7.52,7.52 L48.68,7.52 C49.1434765,7.52041013 49.5195899,7.89652349 49.52,8.36 L49.52,43.64 Z" id="Shape"></path>
                    <path d="M39.44,35.24 L37.76,35.24 C36.6907226,35.2432813 35.7408008,35.9220899 35.3909375,36.9323047 L31.8385742,33.972207 C31.8635938,33.8360351 31.877539,33.6982226 31.88,33.56 L31.88,31.88 C31.8783594,30.48875 30.75125,29.3616406 29.36,29.36 L27.68,29.36 C26.28875,29.3616406 25.1616406,30.48875 25.16,31.88 L25.16,33.56 C25.162461,33.6982226 25.1764063,33.8360351 25.2014258,33.972207 L21.6490625,36.9323047 C21.2991992,35.9220899 20.3492774,35.2432813 19.28,35.24 L17.6,35.24 C16.20875,35.2416406 15.0816406,36.36875 15.08,37.76 L10.04,37.76 L10.04,39.44 L15.08,39.44 C15.0816406,40.83125 16.20875,41.9583594 17.6,41.96 L19.28,41.96 C20.67125,41.9583594 21.7983594,40.83125 21.8,39.44 L21.8,38.9933399 L26.0414258,35.4586133 C26.4946485,35.856875 27.0766601,36.077539 27.68,36.08 L29.36,36.08 C29.9633399,36.077539 30.5453515,35.856875 30.9985742,35.4586133 L35.24,38.9933399 L35.24,39.44 C35.2416406,40.83125 36.36875,41.9583594 37.76,41.96 L39.44,41.96 C40.83125,41.9583594 41.9583594,40.83125 41.96,39.44 L47,39.44 L47,37.76 L41.96,37.76 C41.9583594,36.36875 40.83125,35.2416406 39.44,35.24 Z M20.12,39.44 C20.1195899,39.9034765 19.7434765,40.2795899 19.28,40.28 L17.6,40.28 C17.1365235,40.2795899 16.7604101,39.9034765 16.76,39.44 L16.76,37.76 C16.7604101,37.2965235 17.1365235,36.9204101 17.6,36.92 L19.28,36.92 C19.7434765,36.9204101 20.1195899,37.2965235 20.12,37.76 L20.12,39.44 Z M30.2,33.56 C30.1995899,34.0234765 29.8234765,34.3995899 29.36,34.4 L27.68,34.4 C27.2165235,34.3995899 26.8404101,34.0234765 26.84,33.56 L26.84,31.88 C26.8404101,31.4165235 27.2165235,31.0404101 27.68,31.04 L29.36,31.04 C29.8234765,31.0404101 30.1995899,31.4165235 30.2,31.88 L30.2,33.56 Z M40.28,39.44 C40.2795899,39.9034765 39.9034765,40.2795899 39.44,40.28 L37.76,40.28 C37.2965235,40.2795899 36.9204101,39.9034765 36.92,39.44 L36.92,37.76 C36.9204101,37.2965235 37.2965235,36.9204101 37.76,36.92 L39.44,36.92 C39.9034765,36.9204101 40.2795899,37.2965235 40.28,37.76 L40.28,39.44 Z" id="Shape"></path>
                    <path d="M17.6,25.16 C21.7753906,25.16 25.16,21.7753906 25.16,17.6 C25.16,13.4246094 21.7753906,10.04 17.6,10.04 C13.4246094,10.04 10.04,13.4246094 10.04,17.6 C10.0449219,21.7733399 13.4266601,25.1550781 17.6,25.16 Z M23.4131445,16.76 L19.28,16.76 C18.8165235,16.7595899 18.4404101,16.3834765 18.44,15.92 L18.44,11.7868555 C21.014961,12.1625586 23.0374414,14.185039 23.4131445,16.76 Z M16.76,11.7868555 L16.76,15.92 C16.7616406,17.31125 17.88875,18.4383594 19.28,18.44 L23.4131445,18.44 C22.9816601,21.4382422 20.3423047,23.6174024 17.316582,23.4734375 C14.2912695,23.3290625 11.8709375,20.9087305 11.7265625,17.883418 C11.5825976,14.8576953 13.7617578,12.2183399 16.76,11.7868555 Z" id="Shape"></path>
                    <polygon id="Shape" points="34.4 10.88 36.08 10.88 36.08 12.56 34.4 12.56"></polygon>
                    <polygon id="Shape" points="37.76 10.88 43.64 10.88 43.64 12.56 37.76 12.56"></polygon>
                    <polygon id="Shape" points="45.32 10.88 47 10.88 47 12.56 45.32 12.56"></polygon>
                    <polygon id="Shape" points="34.4 14.24 36.08 14.24 36.08 15.92 34.4 15.92"></polygon>
                    <polygon id="Shape" points="37.76 14.24 43.64 14.24 43.64 15.92 37.76 15.92"></polygon>
                    <polygon id="Shape" points="45.32 14.24 47 14.24 47 15.92 45.32 15.92"></polygon>
                    <polygon id="Shape" points="27.68 20.96 29.36 20.96 29.36 22.64 27.68 22.64"></polygon>
                    <polygon id="Shape" points="31.04 20.96 36.92 20.96 36.92 22.64 31.04 22.64"></polygon>
                    <polygon id="Shape" points="38.6 20.96 40.28 20.96 40.28 22.64 38.6 22.64"></polygon>
                    <polygon id="Shape" points="27.68 17.6 29.36 17.6 29.36 19.28 27.68 19.28"></polygon>
                    <polygon id="Shape" points="31.04 17.6 43.64 17.6 43.64 19.28 31.04 19.28"></polygon>
                    <polygon id="Shape" points="45.32 17.6 47 17.6 47 19.28 45.32 19.28"></polygon>
                    <path d="M29.36,15.92 L31.04,15.92 C31.9673633,15.9191797 32.7191797,15.1673633 32.72,14.24 L32.72,12.56 C32.7191797,11.6326367 31.9673633,10.8808203 31.04,10.88 L29.36,10.88 C28.4326367,10.8808203 27.6808203,11.6326367 27.68,12.56 L27.68,14.24 C27.6808203,15.1673633 28.4326367,15.9191797 29.36,15.92 Z M29.36,12.56 L31.04,12.56 L31.04,14.24 L29.36,14.24 L29.36,12.56 Z" id="Shape"></path>
                    <path d="M45.32,20.96 L43.64,20.96 C42.7126367,20.9608203 41.9608203,21.7126367 41.96,22.64 L41.96,24.32 C41.9608203,25.2473633 42.7126367,25.9991797 43.64,26 L45.32,26 C46.2473633,25.9991797 46.9991797,25.2473633 47,24.32 L47,22.64 C46.9991797,21.7126367 46.2473633,20.9608203 45.32,20.96 Z M45.32,24.32 L43.64,24.32 L43.64,22.64 L45.32,22.64 L45.32,24.32 Z" id="Shape"></path>
                    <polygon id="Shape" points="27.68 24.32 29.36 24.32 29.36 26 27.68 26"></polygon>
                    <polygon id="Shape" points="31.04 24.32 36.92 24.32 36.92 26 31.04 26"></polygon>
                    <polygon id="Shape" points="38.6 24.32 40.28 24.32 40.28 26 38.6 26"></polygon>
                </g>
            </g>
        </g>
    </g>
</svg>