<?xml version="1.0" encoding="UTF-8"?>
<svg width="54px" height="54px" viewBox="0 0 54 54" version="1.1" xmlns="http://www.w3.org/2000/svg" xmlns:xlink="http://www.w3.org/1999/xlink">
    <!-- Generator: Sketch 43.1 (39012) - http://www.bohemiancoding.com/sketch -->
    <title>Group 6 Copy</title>
    <desc>Created with Sketch.</desc>
    <defs></defs>
    <g id="Page-1" stroke="none" stroke-width="1" fill="none" fill-rule="evenodd">
        <g id="О-нас-Copy-3" transform="translate(-812.000000, -1656.000000)" fill-rule="nonzero" fill="#7254F7">
            <g id="Group-5" transform="translate(806.000000, 920.000000)">
                <g id="Group-6-Copy" transform="translate(6.000000, 736.000000)">
                    <g id="computer" transform="translate(0.400000, 0.600000)">
                        <path d="M32.834375,35.9515625 C32.2608612,35.9515625 31.7953125,36.4171112 31.7953125,36.990625 C31.7953125,37.5641388 32.2608612,38.0296875 32.834375,38.0296875 C33.4078888,38.0296875 33.8734375,37.5641388 33.8734375,36.990625 C33.8734375,36.4171112 33.4078888,35.9515625 32.834375,35.9515625 Z" id="Shape"></path>
                        <path d="M48.0046875,0 L5.1953125,0 C2.33058477,0 0,2.33058477 0,5.1953125 L0,36.990625 C0,39.8553527 2.33058477,42.1859375 5.1953125,42.1859375 L21.4046875,42.1859375 L21.4046875,46.965625 L20.365625,46.965625 C18.9783143,46.965625 17.6742096,47.5062622 16.6923768,48.4876893 C15.7109497,49.4695221 15.1703125,50.7736268 15.1703125,52.1609375 C15.1703125,52.7348572 15.6354553,53.2 16.209375,53.2 L36.990625,53.2 C37.5645447,53.2 38.0296875,52.7348572 38.0296875,52.1609375 C38.0296875,49.2962098 35.6991027,46.965625 32.834375,46.965625 L31.7953125,46.965625 L31.7953125,42.1859375 L48.0046875,42.1859375 C50.8694152,42.1859375 53.2,39.8553527 53.2,36.990625 L53.2,5.1953125 C53.2,2.33058477 50.8694152,0 48.0046875,0 Z M5.1953125,2.078125 L48.0046875,2.078125 C49.7236054,2.078125 51.121875,3.47639463 51.121875,5.1953125 L51.121875,31.7953125 L46.3421875,31.7953125 L46.3421875,7.896875 C46.3421875,7.32295527 45.8770447,6.8578125 45.303125,6.8578125 L36.990625,6.8578125 C36.4167053,6.8578125 35.9515625,7.32295527 35.9515625,7.896875 L35.9515625,31.7953125 L30.7505676,31.7953125 C30.7396088,30.7205322 30.7116027,29.6611756 30.6669556,28.6334777 C30.4851196,24.4017334 30.0707123,21.567041 29.855188,20.320166 C31.9990662,18.741684 32.5843506,15.8160736 31.2737519,13.5431244 L27.6723449,7.30550235 C27.4864502,6.98404238 27.1434784,6.7859711 26.7725006,6.7859711 C26.401117,6.7859711 26.0581451,6.98404238 25.8726562,7.30550235 L22.2696259,13.5435303 C21.0341156,15.6865967 21.4720643,18.4624359 23.4130005,20.1005829 C23.1881408,21.3438049 22.7343628,24.2799683 22.5371033,28.6314483 C22.4904267,29.670105 22.4607971,30.7302734 22.4494324,31.7953125 L17.2484375,31.7953125 L17.2484375,16.209375 C17.2484375,16.0445861 17.2094727,15.8944092 17.1457489,15.7608734 C17.1429077,15.7555969 17.1412842,15.7499146 17.1388488,15.7446381 L12.9825988,7.43213809 C12.8064453,7.08023682 12.4468322,6.8578125 12.053125,6.8578125 C11.6594178,6.8578125 11.2998047,7.08023682 11.1236512,7.43213809 L6.96740117,15.7446381 C6.96496582,15.7499146 6.96334229,15.7555969 6.96090703,15.7608734 C6.89596563,15.8956269 6.8578125,16.0482392 6.8578125,16.209375 L6.8578125,31.7953125 L2.078125,31.7953125 L2.078125,5.1953125 C2.078125,3.47639463 3.47639463,2.078125 5.1953125,2.078125 L5.1953125,2.078125 Z M38.0296875,31.7953125 L38.0296875,8.9359375 L44.2640625,8.9359375 L44.2640625,11.0140625 L43.225,11.0140625 C42.6510803,11.0140625 42.1859375,11.4792053 42.1859375,12.053125 C42.1859375,12.6270447 42.6510803,13.0921875 43.225,13.0921875 L44.2640625,13.0921875 L44.2640625,16.209375 L43.225,16.209375 C42.6510803,16.209375 42.1859375,16.6745178 42.1859375,17.2484375 C42.1859375,17.8223572 42.6510803,18.2875 43.225,18.2875 L44.2640625,18.2875 L44.2640625,21.4046875 L43.225,21.4046875 C42.6510803,21.4046875 42.1859375,21.8698303 42.1859375,22.44375 C42.1859375,23.0176697 42.6510803,23.4828125 43.225,23.4828125 L44.2640625,23.4828125 L44.2640625,27.6390625 L43.225,27.6390625 C42.6510803,27.6390625 42.1859375,28.1042053 42.1859375,28.678125 C42.1859375,29.2520447 42.6510803,29.7171875 43.225,29.7171875 L44.2640625,29.7171875 L44.2640625,31.7953125 L38.0296875,31.7953125 Z M26.7725006,21.3328461 C27.1499726,21.3328461 27.5258209,21.2894165 27.8935517,21.2082397 C28.0863465,22.4441559 28.3696533,24.6310577 28.5372833,27.6390625 L24.6696167,27.6390625 C24.8453644,24.6330871 25.1420654,22.412091 25.3470367,21.1343689 C25.807309,21.2654693 26.2866577,21.3328461 26.7725006,21.3328461 Z M26.7725006,19.2547211 C24.3976746,19.2547211 22.866275,16.6700531 24.0697205,14.5821869 L26.7725006,9.9031586 L29.4736572,14.5817811 C30.6726379,16.6611236 29.1623443,19.2547211 26.7725006,19.2547211 Z M24.574234,29.7171875 L28.6286072,29.7171875 C28.6505249,30.399884 28.6655426,31.0943512 28.6728485,31.7953125 L24.5275574,31.7953125 C24.5352691,31.0988159 24.5510986,30.4043487 24.574234,29.7171875 Z M13.0921875,31.7953125 L13.0921875,17.2484375 L15.1703125,17.2484375 L15.1703125,31.7953125 L13.0921875,31.7953125 Z M8.9359375,31.7953125 L8.9359375,17.2484375 L11.0140625,17.2484375 L11.0140625,31.7953125 L8.9359375,31.7953125 Z M9.57804571,15.1703125 L12.053125,10.2201538 L14.5282043,15.1703125 L9.57804571,15.1703125 Z M35.7733795,51.121875 L17.4254028,51.121875 C17.5780151,50.688797 17.8272277,50.2918427 18.161676,49.9569885 C18.7510193,49.3680512 19.5335633,49.04375 20.365625,49.04375 L32.834375,49.04375 C34.189215,49.04375 35.3447662,49.9123413 35.7733795,51.121875 Z M29.7171875,46.965625 L23.4828125,46.965625 L23.4828125,42.1859375 L29.7171875,42.1859375 L29.7171875,46.965625 Z M48.0046875,40.1078125 L5.1953125,40.1078125 C3.47639463,40.1078125 2.078125,38.7095429 2.078125,36.990625 L2.078125,33.8734375 L51.121875,33.8734375 L51.121875,36.990625 C51.121875,38.7095429 49.7236054,40.1078125 48.0046875,40.1078125 Z" id="Shape"></path>
                        <path d="M28.678125,35.9515625 L22.44375,35.9515625 C21.8698303,35.9515625 21.4046875,36.4167053 21.4046875,36.990625 C21.4046875,37.5645447 21.8698303,38.0296875 22.44375,38.0296875 L28.678125,38.0296875 C29.2520447,38.0296875 29.7171875,37.5645447 29.7171875,36.990625 C29.7171875,36.4167053 29.2520447,35.9515625 28.678125,35.9515625 Z" id="Shape"></path>
                    </g>
                </g>
            </g>
        </g>
    </g>
</svg>