<?xml version="1.0" encoding="UTF-8"?>
<svg width="35px" height="35px" viewBox="0 0 35 35" version="1.1" xmlns="http://www.w3.org/2000/svg" xmlns:xlink="http://www.w3.org/1999/xlink">
    <!-- Generator: Sketch 43.1 (39012) - http://www.bohemiancoding.com/sketch -->
    <title>001-instagram</title>
    <desc>Created with Sketch.</desc>
    <defs></defs>
    <g id="Page-1" stroke="none" stroke-width="1" fill="none" fill-rule="evenodd">
        <g id="Контакты-Copy-2" transform="translate(-509.000000, -629.000000)" fill-rule="nonzero" fill="#7254F7">
            <g id="Group-3" transform="translate(509.000000, 424.000000)">
                <g id="001-instagram" transform="translate(0.000000, 205.000000)">
                    <path d="M24.0625,0 L10.9375,0 C4.8978125,0 0,4.8978125 0,10.9375 L0,24.0625 C0,30.1021875 4.8978125,35 10.9375,35 L24.0625,35 C30.1021875,35 35,30.1021875 35,24.0625 L35,10.9375 C35,4.8978125 30.1021875,0 24.0625,0 Z M31.71875,24.0625 C31.71875,28.284375 28.284375,31.71875 24.0625,31.71875 L10.9375,31.71875 C6.715625,31.71875 3.28125,28.284375 3.28125,24.0625 L3.28125,10.9375 C3.28125,6.715625 6.715625,3.28125 10.9375,3.28125 L24.0625,3.28125 C28.284375,3.28125 31.71875,6.715625 31.71875,10.9375 L31.71875,24.0625 Z" id="Shape"></path>
                    <path d="M17.5,8.75 C12.6678125,8.75 8.75,12.6678125 8.75,17.5 C8.75,22.3321875 12.6678125,26.25 17.5,26.25 C22.3321875,26.25 26.25,22.3321875 26.25,17.5 C26.25,12.6678125 22.3321875,8.75 17.5,8.75 Z M17.5,22.96875 C14.485625,22.96875 12.03125,20.514375 12.03125,17.5 C12.03125,14.4834375 14.485625,12.03125 17.5,12.03125 C20.514375,12.03125 22.96875,14.4834375 22.96875,17.5 C22.96875,20.514375 20.514375,22.96875 17.5,22.96875 Z" id="Shape"></path>
                    <ellipse id="Oval" cx="26.90625" cy="8.09375" rx="1.1659375" ry="1.1659375"></ellipse>
                </g>
            </g>
        </g>
    </g>
</svg>