<?xml version="1.0" encoding="UTF-8"?>
<svg width="67px" height="65px" viewBox="0 0 67 65" version="1.1" xmlns="http://www.w3.org/2000/svg" xmlns:xlink="http://www.w3.org/1999/xlink">
    <!-- Generator: Sketch 43.1 (39012) - http://www.bohemiancoding.com/sketch -->
    <title>Group 10 Copy</title>
    <desc>Created with Sketch.</desc>
    <defs></defs>
    <g id="Page-1" stroke="none" stroke-width="1" fill="none" fill-rule="evenodd">
        <g id="О-нас-Copy-3" transform="translate(-806.000000, -1003.000000)" fill-rule="nonzero" fill="#7254F7">
            <g id="Group-5" transform="translate(806.000000, 920.000000)">
                <g id="Group-10-Copy" transform="translate(0.000000, 82.000000)">
                    <g id="layers" transform="translate(0.800000, 0.800000)">
                        <path d="M54.1916836,26.2553964 L65.7437709,19.6550582 L32.8724836,0.987 L0,19.6550582 L11.5520873,26.2553964 L0,32.8150582 L11.5520873,39.4153964 L0,45.9750582 L32.8724836,64.7555745 L65.7437709,45.9750582 L54.1916836,39.4153964 L65.7437709,32.8150582 L54.1916836,26.2553964 Z M32.8724836,3.73863636 L60.9092655,19.66104 L32.8724836,35.6803491 L4.83450545,19.66104 L32.8724836,3.73863636 Z M13.9675455,27.6348036 L32.8724836,38.4355745 L51.7774218,27.6348036 L60.9092655,32.82104 L32.8724836,48.8403491 L4.83450545,32.82104 L13.9675455,27.6348036 Z M60.9092655,45.98104 L32.8724836,62.0003491 L4.83450545,45.98104 L13.9675455,40.7948036 L32.8724836,51.5955745 L51.7774218,40.7948036 L60.9092655,45.98104 Z" id="Shape"></path>
                    </g>
                </g>
            </g>
        </g>
    </g>
</svg>