<?xml version="1.0" encoding="UTF-8"?>
<svg width="35px" height="35px" viewBox="0 0 35 35" version="1.1" xmlns="http://www.w3.org/2000/svg" xmlns:xlink="http://www.w3.org/1999/xlink">
    <!-- Generator: Sketch 43.1 (39012) - http://www.bohemiancoding.com/sketch -->
    <title>Shape</title>
    <desc>Created with Sketch.</desc>
    <defs></defs>
    <g id="Page-1" stroke="none" stroke-width="1" fill="none" fill-rule="evenodd">
        <g id="Контакты-Copy-2" transform="translate(-509.000000, -493.000000)" fill-rule="nonzero" fill="#7254F7">
            <g id="Group-3" transform="translate(509.000000, 424.000000)">
                <path d="M17.4991237,69 L34.7846202,81.1222835 L0.213627183,81.1222835 L17.4991237,69 Z M35,100.480048 L34.9982474,100.480048 C34.9982474,102.424432 33.5971101,104 31.8684241,104 L3.12982323,104 C1.40094253,104 0,102.424213 0,100.480048 L0,81.8936418 C0,81.68799 0.0186948127,81.4880326 0.0490738835,81.2915793 L16.564383,92.8735616 C16.5846358,92.8877973 16.6062516,92.8974338 16.6270886,92.9105745 C16.6488992,92.9241532 16.6710993,92.9372939 16.6932994,92.9497775 C16.8099472,93.0174521 16.9301003,93.0719859 17.0529798,93.1076848 C17.0656377,93.111627 17.0782957,93.1133791 17.0909536,93.1166643 C17.225712,93.1523631 17.3622231,93.1747023 17.4985395,93.1747023 L17.4995132,93.1747023 L17.5014605,93.1747023 C17.6377769,93.1747023 17.774288,93.1530202 17.9090464,93.1166643 C17.9217043,93.1131601 17.9343623,93.111627 17.9470202,93.1076848 C18.0697049,93.0719859 18.1894686,93.0174521 18.3067006,92.9497775 C18.3289007,92.9372939 18.3511008,92.9241532 18.3729114,92.9105745 C18.3935536,92.8974338 18.4153642,92.8877973 18.435617,92.8735616 L34.9509261,81.2915793 C34.9813052,81.4880326 35,81.687552 35,81.8936418 L35,100.480048 Z" id="Shape"></path>
            </g>
        </g>
    </g>
</svg>