<?xml version="1.0" encoding="UTF-8"?>
<svg width="24px" height="22px" viewBox="0 0 24 22" version="1.1" xmlns="http://www.w3.org/2000/svg" xmlns:xlink="http://www.w3.org/1999/xlink">
    <!-- Generator: Sketch 43.1 (39012) - http://www.bohemiancoding.com/sketch -->
    <title>Shape</title>
    <desc>Created with Sketch.</desc>
    <defs></defs>
    <g id="Page-1" stroke="none" stroke-width="1" fill="none" fill-rule="evenodd">
        <g id="О-нас-Copy-2" transform="translate(-1288.000000, -74.000000)" fill-rule="nonzero" fill="#FFFFFF">
            <g id="Group-2" transform="translate(1288.000000, 74.000000)">
                <path d="M11.9813333,0 L23.8164,7.38 L0.146266667,7.38 L11.9813333,0 Z M23.9638667,19.1649333 L23.9626667,19.1649333 C23.9626667,20.3486667 23.0033333,21.3078667 21.8197333,21.3078667 L2.14293333,21.3078667 C0.9592,21.3078667 0,20.3485333 0,19.1649333 L0,7.8496 C0,7.7244 0.0128,7.60266667 0.0336,7.48306667 L11.3413333,14.5341333 C11.3552,14.5428 11.37,14.5486667 11.3842667,14.5566667 C11.3992,14.5649333 11.4144,14.5729333 11.4296,14.5805333 C11.5094667,14.6217333 11.5917333,14.6549333 11.6758667,14.6766667 C11.6845333,14.6790667 11.6932,14.6801333 11.7018667,14.6821333 C11.7941333,14.7038667 11.8876,14.7174667 11.9809333,14.7174667 L11.9816,14.7174667 L11.9829333,14.7174667 C12.0762667,14.7174667 12.1697333,14.7042667 12.262,14.6821333 C12.2706667,14.68 12.2793333,14.6790667 12.288,14.6766667 C12.372,14.6549333 12.454,14.6217333 12.5342667,14.5805333 C12.5494667,14.5729333 12.5646667,14.5649333 12.5796,14.5566667 C12.5937333,14.5486667 12.6086667,14.5428 12.6225333,14.5341333 L23.9302667,7.48306667 C23.9510667,7.60266667 23.9638667,7.72413333 23.9638667,7.8496 L23.9638667,19.1649333 Z" id="Shape"></path>
            </g>
        </g>
    </g>
</svg>