<?xml version="1.0" encoding="UTF-8"?>
<svg width="33px" height="61px" viewBox="0 0 33 61" version="1.1" xmlns="http://www.w3.org/2000/svg" xmlns:xlink="http://www.w3.org/1999/xlink">
    <!-- Generator: Sketch 43.1 (39012) - http://www.bohemiancoding.com/sketch -->
    <title>Group 7 Copy</title>
    <desc>Created with Sketch.</desc>
    <defs></defs>
    <g id="Page-1" stroke="none" stroke-width="1" fill="none" fill-rule="evenodd">
        <g id="О-нас-Copy-3" transform="translate(-823.000000, -1372.000000)" fill-rule="nonzero" fill="#7254F7">
            <g id="Group-5" transform="translate(806.000000, 920.000000)">
                <g id="Group-7-Copy" transform="translate(17.000000, 452.000000)">
                    <g id="cellphone" transform="translate(0.600000, 0.200000)">
                        <path d="M27.16875,0 L5.03125,0 C2.254,0.0032703125 0.0032703125,2.254 0,5.03125 L0,55.34375 C0.0032703125,58.121 2.254,60.3717297 5.03125,60.375 L27.16875,60.375 C29.946,60.3717297 32.1967297,58.121 32.2,55.34375 L32.2,5.03125 C32.1967297,2.254 29.946,0.0032703125 27.16875,0 Z M12.1011625,58.3625 L5.03125,58.3625 C3.36401953,58.3625 2.0125,57.0109805 2.0125,55.34375 L2.0125,52.325 L12.1011625,52.325 C10.7249898,54.1022891 10.7249898,56.5852109 12.1011625,58.3625 Z M16.1,58.3625 C14.4327695,58.3625 13.08125,57.0109805 13.08125,55.34375 C13.08125,53.6765195 14.4327695,52.325 16.1,52.325 C17.7672305,52.325 19.11875,53.6765195 19.11875,55.34375 C19.11875,57.0109805 17.7672305,58.3625 16.1,58.3625 Z M30.1875,55.34375 C30.1875,57.0109805 28.8359805,58.3625 27.16875,58.3625 L20.0988375,58.3625 C21.4750102,56.5852109 21.4750102,54.1022891 20.0988375,52.325 L30.1875,52.325 L30.1875,55.34375 Z M30.1875,50.3125 L2.0125,50.3125 L2.0125,11.06875 L30.1875,11.06875 L30.1875,50.3125 Z M30.1875,9.05625 L2.0125,9.05625 L2.0125,5.03125 C2.0125,3.36401953 3.36401953,2.0125 5.03125,2.0125 L27.16875,2.0125 C28.8359805,2.0125 30.1875,3.36401953 30.1875,5.03125 L30.1875,9.05625 Z" id="Shape"></path>
                        <rect id="Rectangle-path" x="9.05625" y="5.03125" width="10.0625" height="2.0125"></rect>
                        <path d="M12.075,20.125 L8.05,20.125 C6.38276953,20.125 5.03125,21.4765195 5.03125,23.14375 L5.03125,27.16875 C5.03125,28.8359805 6.38276953,30.1875 8.05,30.1875 L12.075,30.1875 C13.7422305,30.1875 15.09375,28.8359805 15.09375,27.16875 L15.09375,23.14375 C15.09375,21.4765195 13.7422305,20.125 12.075,20.125 Z M13.08125,27.16875 C13.08125,27.7244516 12.6307016,28.175 12.075,28.175 L8.05,28.175 C7.49429844,28.175 7.04375,27.7244516 7.04375,27.16875 L7.04375,23.14375 C7.04375,22.5880484 7.49429844,22.1375 8.05,22.1375 L12.075,22.1375 C12.6307016,22.1375 13.08125,22.5880484 13.08125,23.14375 L13.08125,27.16875 Z" id="Shape"></path>
                        <path d="M24.15,20.125 L20.125,20.125 C18.4577695,20.125 17.10625,21.4765195 17.10625,23.14375 L17.10625,27.16875 C17.10625,28.8359805 18.4577695,30.1875 20.125,30.1875 L24.15,30.1875 C25.8172305,30.1875 27.16875,28.8359805 27.16875,27.16875 L27.16875,23.14375 C27.16875,21.4765195 25.8172305,20.125 24.15,20.125 Z M25.15625,27.16875 C25.15625,27.7244516 24.7057016,28.175 24.15,28.175 L20.125,28.175 C19.5692984,28.175 19.11875,27.7244516 19.11875,27.16875 L19.11875,23.14375 C19.11875,22.5880484 19.5692984,22.1375 20.125,22.1375 L24.15,22.1375 C24.7057016,22.1375 25.15625,22.5880484 25.15625,23.14375 L25.15625,27.16875 Z" id="Shape"></path>
                        <path d="M12.075,32.2 L8.05,32.2 C6.38276953,32.2 5.03125,33.5515195 5.03125,35.21875 L5.03125,39.24375 C5.03125,40.9109805 6.38276953,42.2625 8.05,42.2625 L12.075,42.2625 C13.7422305,42.2625 15.09375,40.9109805 15.09375,39.24375 L15.09375,35.21875 C15.09375,33.5515195 13.7422305,32.2 12.075,32.2 Z M13.08125,39.24375 C13.08125,39.7994516 12.6307016,40.25 12.075,40.25 L8.05,40.25 C7.49429844,40.25 7.04375,39.7994516 7.04375,39.24375 L7.04375,35.21875 C7.04375,34.6630484 7.49429844,34.2125 8.05,34.2125 L12.075,34.2125 C12.6307016,34.2125 13.08125,34.6630484 13.08125,35.21875 L13.08125,39.24375 Z" id="Shape"></path>
                        <path d="M24.15,32.2 L20.125,32.2 C18.4577695,32.2 17.10625,33.5515195 17.10625,35.21875 L17.10625,39.24375 C17.10625,40.9109805 18.4577695,42.2625 20.125,42.2625 L24.15,42.2625 C25.8172305,42.2625 27.16875,40.9109805 27.16875,39.24375 L27.16875,35.21875 C27.16875,33.5515195 25.8172305,32.2 24.15,32.2 Z M25.15625,39.24375 C25.15625,39.7994516 24.7057016,40.25 24.15,40.25 L20.125,40.25 C19.5692984,40.25 19.11875,39.7994516 19.11875,39.24375 L19.11875,35.21875 C19.11875,34.6630484 19.5692984,34.2125 20.125,34.2125 L24.15,34.2125 C24.7057016,34.2125 25.15625,34.6630484 25.15625,35.21875 L25.15625,39.24375 Z" id="Shape"></path>
                        <path d="M8.05,13.08125 L5.03125,13.08125 C4.47554844,13.08125 4.025,13.5317984 4.025,14.0875 L4.025,17.10625 C4.025,17.6619516 4.47554844,18.1125 5.03125,18.1125 C5.58695156,18.1125 6.0375,17.6619516 6.0375,17.10625 L6.0375,15.09375 L8.05,15.09375 C8.60570156,15.09375 9.05625,14.6432016 9.05625,14.0875 C9.05625,13.5317984 8.60570156,13.08125 8.05,13.08125 Z" id="Shape"></path>
                        <path d="M14.0875,13.08125 L12.075,13.08125 C11.5192984,13.08125 11.06875,13.5317984 11.06875,14.0875 C11.06875,14.6432016 11.5192984,15.09375 12.075,15.09375 L14.0875,15.09375 C14.6432016,15.09375 15.09375,14.6432016 15.09375,14.0875 C15.09375,13.5317984 14.6432016,13.08125 14.0875,13.08125 Z" id="Shape"></path>
                        <rect id="Rectangle-path" x="21.13125" y="5.03125" width="2.0125" height="2.0125"></rect>
                    </g>
                </g>
            </g>
        </g>
    </g>
</svg>