<?xml version="1.0" encoding="UTF-8"?>
<svg width="35px" height="35px" viewBox="0 0 35 35" version="1.1" xmlns="http://www.w3.org/2000/svg" xmlns:xlink="http://www.w3.org/1999/xlink">
    <!-- Generator: Sketch 43.1 (39012) - http://www.bohemiancoding.com/sketch -->
    <title>call-answer</title>
    <desc>Created with Sketch.</desc>
    <defs></defs>
    <g id="Page-1" stroke="none" stroke-width="1" fill="none" fill-rule="evenodd">
        <g id="Контакты-Copy-2" transform="translate(-509.000000, -424.000000)" fill-rule="nonzero" fill="#7254F7">
            <g id="Group-3" transform="translate(509.000000, 424.000000)">
                <g id="call-answer">
                    <path d="M34.2150596,27.2830452 L28.8098555,22.0090868 C27.733239,20.9629476 25.9503412,20.994732 24.8362186,22.0820733 L22.1130535,24.7382311 C21.9410081,24.6457227 21.7629295,24.5490941 21.5757005,24.4465795 C19.8560503,23.5169832 17.502416,22.2428593 15.0257053,19.8247904 C12.5416543,17.4016203 11.2344707,15.1018601 10.2787184,13.4230735 C10.1778642,13.245218 10.0812332,13.0737391 9.98580877,12.9108929 L11.8134525,11.1304746 L12.7119904,10.2527732 C13.8278224,9.16386227 13.8585915,7.42494024 12.7844888,6.37575988 L7.37928473,1.10121285 C6.30518204,0.0535039883 4.52147978,0.0852884144 3.40564777,1.17419931 L1.88227614,2.66895024 L1.92390491,2.70926937 C1.41309779,3.34515409 0.98625208,4.07855029 0.668606471,4.86943314 C0.375797351,5.62225316 0.193495519,6.34064005 0.110137428,7.06049844 C-0.603584803,12.8330996 2.10027414,18.1088238 9.43819941,25.2678734 C19.5814412,35.1630323 27.7555617,34.4155097 28.1081996,34.3790165 C28.8762202,34.2894511 29.6122652,34.1104185 30.3602758,33.8270073 C31.1638921,33.5207389 31.9151204,33.1048926 32.5665,32.6076233 L32.5997829,32.6364647 L34.143064,31.1621186 C35.2565833,30.0734039 35.2886595,28.3338933 34.2150596,27.2830452 Z" id="Shape"></path>
                </g>
            </g>
        </g>
    </g>
</svg>