<?xml version="1.0" encoding="UTF-8"?>
<svg width="54px" height="43px" viewBox="0 0 54 43" version="1.1" xmlns="http://www.w3.org/2000/svg" xmlns:xlink="http://www.w3.org/1999/xlink">
    <!-- Generator: Sketch 43.1 (39012) - http://www.bohemiancoding.com/sketch -->
    <title>Group 5 Copy</title>
    <desc>Created with Sketch.</desc>
    <defs></defs>
    <g id="Page-1" stroke="none" stroke-width="1" fill="none" fill-rule="evenodd">
        <g id="О-нас-Copy-3" transform="translate(-812.000000, -1474.000000)" fill-rule="nonzero" fill="#7254F7">
            <g id="Group-5" transform="translate(806.000000, 920.000000)">
                <g id="Group-5-Copy" transform="translate(6.000000, 554.000000)">
                    <g id="picture" transform="translate(0.400000, 0.000000)">
                        <path d="M52.2827586,0 L0.917241379,0 C0.410924138,0 0,0.410006897 0,0.917241379 L0,41.2758621 C0,41.7830966 0.410924138,42.1931034 0.917241379,42.1931034 L52.2827586,42.1931034 C52.7890759,42.1931034 53.2,41.7830966 53.2,41.2758621 L53.2,0.917241379 C53.2,0.410006897 52.7890759,0 52.2827586,0 Z M51.3655172,40.3586207 L1.83448276,40.3586207 L1.83448276,1.83448276 L51.3655172,1.83448276 L51.3655172,40.3586207 Z" id="Shape"></path>
                        <path d="M14.6758621,20.3058897 C17.4927103,20.3058897 19.7839793,18.0146207 19.7839793,15.1986897 C19.7839793,12.3809241 17.4927103,10.0896552 14.6758621,10.0896552 C11.8590138,10.0896552 9.56774483,12.3809241 9.56774483,15.1977724 C9.56774483,18.0146207 11.8590138,20.3058897 14.6758621,20.3058897 Z M14.6758621,11.9241379 C16.4809931,11.9241379 17.9494966,13.3935586 17.9494966,15.1977724 C17.9494966,17.0019862 16.4809931,18.4714069 14.6758621,18.4714069 C12.870731,18.4714069 11.4022276,17.0029034 11.4022276,15.1986897 C11.4022276,13.3944759 12.870731,11.9241379 14.6758621,11.9241379 Z" id="Shape"></path>
                        <path d="M6.42068966,36.6896552 C6.63532414,36.6896552 6.8517931,36.6144414 7.02606897,36.4612621 L21.9890276,23.2878414 L31.4384483,32.7363448 C31.7970897,33.0949862 32.3767862,33.0949862 32.7354276,32.7363448 C33.094069,32.3777034 33.094069,31.7980069 32.7354276,31.4393655 L28.3262483,27.0301862 L36.7474414,17.8082414 L47.0764966,27.2769241 C47.4498138,27.6190552 48.0304276,27.5933724 48.3725586,27.2200552 C48.7146897,26.8467379 48.6899241,26.2661241 48.3156897,25.9239931 L37.3087931,15.8343379 C37.1290138,15.6701517 36.8896138,15.5885172 36.6483793,15.5940207 C36.4053103,15.6050276 36.176,15.7123448 36.0118138,15.8921241 L27.0283517,25.7313724 L22.6778759,21.3808966 C22.3348276,21.0387655 21.7863172,21.0213379 21.4230897,21.3405379 L5.8143931,35.0835655 C5.43373793,35.4183586 5.39704828,35.9980552 5.73184138,36.3787103 C5.91345517,36.5850897 6.16661379,36.6896552 6.42068966,36.6896552 Z" id="Shape"></path>
                    </g>
                </g>
            </g>
        </g>
    </g>
</svg>